<?xml version="1.0" encoding="UTF-8"?>
<svg width="130px" height="32px" viewBox="0 0 130 32" version="1.1" xmlns="http://www.w3.org/2000/svg" xmlns:xlink="http://www.w3.org/1999/xlink">
    <!-- Generator: Sketch 52.2 (67145) - http://www.bohemiancoding.com/sketch -->
    <title>Kubeflow Logo</title>
    <desc>Created with Sketch.</desc>
    <defs>
        <polygon id="path-1" points="0 0.24845283 42.930717 0.24845283 42.930717 15.9818868 0 15.9818868"></polygon>
        <polygon id="path-3" points="0.19954717 0.267471698 15.8381887 0.267471698 15.8381887 15.9818868 0.19954717 15.9818868"></polygon>
    </defs>
    <g id="Symbols" stroke="none" stroke-width="1" fill="none" fill-rule="evenodd">
        <g id="collapsed-nav/expanded" transform="translate(-24.000000, -20.000000)">
            <g id="Group-14" transform="translate(16.000000, 20.000000)">
                <g id="Group-3" transform="translate(8.000000, 0.000000)">
                    <g id="Group-31" fill="#FFFFFF">
                        <path d="M4.66,8A1.91,1.91,0,0,0,1.92,6.75a2.69,2.69,0,0,0-1,3.36L5.5,22.33c.72,1.9,1.48,2.92,2.9,2.92s2.19-1.09,2.91-2.92c0,0,4-10.69,4-10.78a.62.62,0,0,1,.59-.47.71.71,0,0,1,.63.78V22.29c0,1.62.74,2.93,2.14,2.93s2.16-1.31,2.16-2.93V13.76c0-1.65,1-2.71,2.29-2.71s2.19,1.12,2.19,2.71v8.53c0,1.62.74,2.93,2.14,2.93s2.16-1.31,2.16-2.93V13.76c0-1.65,1-2.71,2.26-2.71s2.19,1.12,2.19,2.71v8.53c0,1.62.74,2.93,2.14,2.93s2.16-1.31,2.16-2.93V12.57C38.4,9,36.06,6.5,33.24,6.5a6.21,6.21,0,0,0-4.58,2.4,4.77,4.77,0,0,0-4.43-2.4c-2.32,0-4.33,2.4-4.33,2.4A4.92,4.92,0,0,0,16,6.5c-2.06,0-3.67,1.09-4.66,3.89l-3,8.48Z" id="Fill-1"></path>
                    </g>
                    <g id="Group-20" transform="translate(46.000000, 8.000000)">
                        <g id="Group-12">
                            <g id="Clip-8"></g>
                            <polyline id="Fill-7" fill="#FFFFFF" points="11.4001509 1.22837736 8.17962264 1.22837736 2.69886792 7.49464151 2.69886792 1.22837736 0 1.22837736 0 15.7077736 2.69886792 15.7077736 2.69886792 11.1375094 3.95320755 9.70898113 8.54701887 15.7077736 11.802566 15.7077736 5.70475472 7.68060377 11.4001509 1.22837736"></polyline>
                            <path d="M18.4618868,12.3356981 C18.4618868,12.7175849 18.3133585,12.9820377 17.9806792,13.1927547 C17.5855094,13.4430189 17.125434,13.5643774 16.5741887,13.5643774 C16.0283774,13.5643774 15.5695094,13.442717 15.170717,13.1918491 C14.8359245,12.9811321 14.6864906,12.7169811 14.6864906,12.3356981 L14.6864906,5.09222642 L12.0818113,5.09222642 L12.0818113,12.2756226 C12.0818113,13.456 12.5663396,14.3915472 13.5224151,15.056 C14.4238491,15.6821132 15.4490566,16 16.5693585,16 C17.690566,16 18.7175849,15.6787925 19.6223396,15.0457358 C20.5805283,14.3749434 21.066566,13.442717 21.066566,12.2756226 L21.066566,5.09222642 L18.4618868,5.09222642 L18.4618868,12.3356981" id="Fill-9" fill="#FFFFFF" mask="url(#mask-2)"></path>
                            <path d="M26.3963774,13.2724528 L25.5052075,13.2724528 L25.5052075,7.55532075 C26.1575849,7.34279245 26.933434,7.23562264 27.8167547,7.23562264 C28.4718491,7.23562264 28.9189434,7.47018868 29.2241509,7.97433962 C29.568,8.54218868 29.7424906,9.22173585 29.7424906,9.99335849 C29.7424906,11.1746415 29.4895094,12.0256604 28.9904906,12.522566 C28.4911698,13.0203774 27.6184151,13.2724528 26.3963774,13.2724528 Z M31.3772075,6.57750943 C31.0315472,6.03713208 30.5461132,5.60060377 29.933283,5.27939623 C29.3264906,4.96120755 28.6209811,4.8 27.8333585,4.8 C27.0943396,4.80543396 26.3136604,4.92196226 25.5052075,5.14807547 L25.5052075,0.24845283 L22.9005283,0.24845283 L22.9005283,15.7077736 L26.3710189,15.7077736 C28.3915472,15.7077736 29.9091321,15.2181132 30.8809057,14.2526792 C31.8538868,13.2860377 32.3471698,11.8723019 32.3471698,10.0504151 C32.3471698,9.43335849 32.2671698,8.82324528 32.109283,8.23818868 C31.9495849,7.64679245 31.7035472,7.088 31.3772075,6.57750943 Z" id="Fill-10" fill="#FFFFFF" mask="url(#mask-2)"></path>
                            <path d="M38.4144906,7.23562264 C39.0007547,7.23562264 39.4140377,7.43667925 39.714717,7.86837736 C39.9749434,8.24241509 40.1603019,8.70822642 40.2689811,9.25796226 L36.1871698,9.25796226 C36.3178868,8.71215094 36.5500377,8.26626415 36.890566,7.90460377 C37.3144151,7.45418868 37.8128302,7.23562264 38.4144906,7.23562264 Z M42.930717,10.9747925 C42.930717,8.15788679 42.1470189,4.8 38.4144906,4.8 C36.9261887,4.8 35.7080755,5.32075472 34.7933585,6.3474717 C33.8931321,7.35788679 33.4366792,8.71486792 33.4366792,10.3806792 C33.4366792,11.1353962 33.5435472,11.8463396 33.754566,12.4929811 C33.9689057,13.1495849 34.2997736,13.7497358 34.7375094,14.2762264 C35.1870189,14.8169057 35.7862642,15.2455849 36.5189434,15.5495849 C37.2380377,15.8484528 38.0818113,16 39.0300377,16 C40.101434,15.9927547 41.1604528,15.792 42.1775094,15.4022642 L42.4875472,15.2839245 L42.4875472,12.6807547 L41.8031698,12.9965283 C40.9853585,13.3735849 39.9815849,13.5643774 38.8196226,13.5643774 C37.893434,13.5643774 37.234717,13.314717 36.8060377,12.8006038 C36.4630943,12.3897358 36.2366792,11.9468679 36.1207547,11.4575094 L42.930717,11.4575094 L42.930717,10.9747925 Z" id="Fill-11" fill="#FFFFFF" mask="url(#mask-2)"></path>
                        </g>
                        <path d="M46.3308679,1.1154717 C45.7729811,1.66701887 45.4901132,2.39667925 45.4901132,3.2845283 L45.4901132,5.09222642 L43.9918491,5.09222642 L43.9918491,7.52754717 L45.4901132,7.52754717 L45.4901132,15.7077736 L48.0947925,15.7077736 L48.0947925,7.52754717 L50.6487547,7.52754717 L50.6487547,5.09222642 L48.0947925,5.09222642 L48.0947925,4.14249057 C48.0947925,3.30716981 48.2460377,3.02550943 48.3112453,2.94339623 C48.3526038,2.89116981 48.5421887,2.72120755 49.2519245,2.72120755 L51.242566,2.72120755 L51.242566,0.286188679 L48.3852075,0.286188679 C47.578566,0.286188679 46.8869434,0.565433962 46.3308679,1.1154717" id="Fill-13" fill="#FFFFFF"></path>
                        <g id="Group-17" transform="translate(52.226415, 0.000000)">

                            <g id="Clip-15"></g>
                            <polygon id="Fill-14" fill="#FFFFFF" points="0.19954717 15.7077736 2.8045283 15.7077736 2.8045283 0.267471698 0.19954717 0.267471698"></polygon>
                            <path d="M10.1862642,13.5643774 C9.25222642,13.5643774 8.52981132,13.2721509 7.9770566,12.6698868 C7.41373585,12.0561509 7.13962264,11.3138113 7.13962264,10.4 C7.13962264,9.48649057 7.41373585,8.74384906 7.97735849,8.12981132 C8.52981132,7.52784906 9.25222642,7.23562264 10.1862642,7.23562264 C11.1088302,7.23562264 11.8288302,7.52845283 12.3876226,8.13162264 C12.9566792,8.74535849 13.2332075,9.48739623 13.2332075,10.4 C13.2332075,11.3126038 12.9566792,12.0543396 12.3876226,12.6683774 C11.8288302,13.2715472 11.1088302,13.5643774 10.1862642,13.5643774 Z M10.1862642,4.8 C8.54701887,4.8 7.1794717,5.34671698 6.12256604,6.42445283 C5.06898113,7.49977358 4.53464151,8.83713208 4.53464151,10.4 C4.53464151,11.9628679 5.06716981,13.2999245 6.11743396,14.3749434 C7.17101887,15.4529811 8.53977358,16 10.1862642,16 C11.8113208,16 13.1749434,15.4499623 14.2384906,14.3661887 C15.2999245,13.2848302 15.8381887,11.9501887 15.8381887,10.4 C15.8381887,8.85011321 15.2999245,7.51577358 14.2384906,6.43350943 C13.1746415,5.34973585 11.8110189,4.8 10.1862642,4.8 Z" id="Fill-16" fill="#FFFFFF" mask="url(#mask-4)"></path>
                        </g>
                        <polyline id="Fill-18" fill="#FFFFFF" points="80.8470943 5.09222642 78.9838491 11.4943396 77.1287547 5.09222642 74.7882264 5.09222642 72.9101887 11.4910189 71.0638491 5.09222642 68.3100377 5.09222642 71.6392453 15.7077736 74.3142642 15.7077736 76.0009057 9.61237736 77.6944906 15.7077736 80.2629434 15.7077736 83.6006038 5.09222642 80.8470943 5.09222642"></polyline>
                    </g>
                </g>
            </g>
        </g>
    </g>
</svg>
